<svg id="Capa_1" enable-background="new 0 0 512 512" height="512" viewBox="0 0 512 512" width="512" xmlns="http://www.w3.org/2000/svg"><g><path d="m486.926 213.574-188.5-188.5c-10.858-10.858-25.857-17.574-42.426-17.574s-31.569 6.716-42.426 17.574l-188.5 188.5c-10.858 10.858-17.574 25.857-17.574 42.426s6.716 31.569 17.574 42.426l188.5 188.5c10.857 10.858 25.857 17.574 42.426 17.574s31.568-6.716 42.426-17.574l188.5-188.5c10.858-10.857 17.574-25.857 17.574-42.426s-6.716-31.568-17.574-42.426z" fill="#eded51"/><path d="m465.714 234.787-188.5-188.5c-5.667-5.666-13.201-8.787-21.214-8.787v437c8.013 0 15.547-3.121 21.214-8.787l188.499-188.5c5.667-5.667 8.787-13.2 8.787-21.213s-3.12-15.547-8.786-21.213z" fill="#2c2c2f"/><path d="m274.301 465.713 162.618-188.5c4.889-5.667 7.581-13.2 7.581-21.213s-2.692-15.547-7.58-21.213l-162.619-188.5c-4.889-5.666-11.388-8.787-18.301-8.787-8.013 0-15.547 3.121-21.214 8.787l-188.499 188.5c-5.667 5.666-8.787 13.2-8.787 21.213s3.12 15.547 8.786 21.213l188.5 188.5c5.667 5.667 13.201 8.788 21.214 8.788 6.913-.001 13.412-3.122 18.301-8.788z" fill="#424247"/><path d="m256 109.926v292.148l146.073-146.074z" fill="#ecc04b"/><path d="m256 109.926-146.073 146.074 146.073 146.074 116.073-146.074z" fill="#eded51"/><circle cx="256.005" cy="308.5" r="7.5"/><path d="m256.006 286c4.143 0 7.5-3.358 7.5-7.5v-75c0-4.142-3.357-7.5-7.5-7.5s-7.5 3.358-7.5 7.5v75c0 4.142 3.357 7.5 7.5 7.5z"/><path d="m492.23 208.271-188.501-188.5c-12.749-12.75-29.7-19.771-47.729-19.771s-34.98 7.021-47.73 19.771l-188.5 188.5c-12.749 12.749-19.77 29.7-19.77 47.729s7.021 34.98 19.77 47.729l188.501 188.5c12.749 12.75 29.7 19.771 47.729 19.771s34.98-7.021 47.73-19.771l188.5-188.5c12.749-12.749 19.77-29.7 19.77-47.729s-7.021-34.98-19.77-47.729zm-10.607 84.852-188.499 188.5c-9.917 9.916-23.102 15.377-37.124 15.377s-27.207-5.461-37.123-15.377l-188.5-188.5c-9.916-9.916-15.377-23.1-15.377-37.123s5.461-27.207 15.377-37.123l188.499-188.5c9.917-9.916 23.102-15.377 37.124-15.377s27.207 5.461 37.123 15.377l188.5 188.5c9.916 9.916 15.377 23.1 15.377 37.123s-5.461 27.207-15.377 37.123z"/><path d="m471.018 229.484-188.5-188.5c-7.084-7.083-16.501-10.984-26.518-10.984s-19.434 3.901-26.518 10.984l-188.498 188.499c-7.084 7.082-10.984 16.5-10.984 26.517s3.9 19.434 10.982 26.516c2.93 2.929 7.678 2.929 10.607 0s2.929-7.678 0-10.606c-4.249-4.25-6.589-9.9-6.589-15.91s2.341-11.661 6.591-15.91l188.498-188.499c4.251-4.251 9.901-6.591 15.911-6.591s11.66 2.341 15.91 6.591l188.5 188.5c4.25 4.25 6.59 9.899 6.59 15.91s-2.341 11.661-6.591 15.91l-188.498 188.498c-4.251 4.251-9.901 6.591-15.911 6.591s-11.66-2.341-15.91-6.591l-167.287-167.286c-2.929-2.928-7.677-2.93-10.607 0-2.929 2.929-2.929 7.678 0 10.606l167.287 167.286c7.083 7.084 16.5 10.985 26.517 10.985s19.434-3.901 26.518-10.984l188.498-188.499c7.084-7.082 10.984-16.5 10.984-26.517s-3.9-19.434-10.982-26.516z"/><path d="m256 409.574c1.989 0 3.896-.79 5.304-2.197l146.073-146.074c2.929-2.929 2.929-7.678 0-10.606l-146.073-146.074c-1.407-1.407-3.314-2.197-5.304-2.197s-3.896.79-5.304 2.197l-146.073 146.074c-2.929 2.929-2.929 7.678 0 10.606l146.073 146.074c1.408 1.407 3.315 2.197 5.304 2.197zm0-289.041 135.467 135.467-135.467 135.467-135.467-135.467z"/></g></svg>